<svg xmlns="http://www.w3.org/2000/svg" viewBox="0 0 760 180" font-family="-apple-system, BlinkMacSystemFont, 'Segoe UI', sans-serif">
  <defs>
    <linearGradient id="g1" x1="0" y1="0" x2="0" y2="1">
      <stop offset="0%" stop-color="#FFB400"/>
      <stop offset="100%" stop-color="#FFCB4D"/>
    </linearGradient>
    <marker id="a" viewBox="0 0 10 10" refX="9" refY="5" markerWidth="7" markerHeight="7" orient="auto-start-reverse">
      <path d="M 0 0 L 10 5 L 0 10 z" fill="#444"/>
    </marker>
  </defs>

  <g transform="translate(20,30)">
    <rect width="160" height="80" rx="8" fill="url(#g1)" stroke="#1B1F1E"/>
    <text x="80" y="28" text-anchor="middle" fill="#1B1F1E" font-size="11" font-weight="700">本地构建</text>
    <text x="80" y="46" text-anchor="middle" fill="#1B1F1E" font-size="9">pnpm build-gp-pages</text>
    <text x="80" y="60" text-anchor="middle" fill="#1B1F1E" opacity="0.8" font-size="8">apps/web → dist/</text>
  </g>

  <line x1="185" y1="70" x2="225" y2="70" stroke="#444" stroke-width="2" marker-end="url(#a)"/>

  <g transform="translate(230,20)">
    <rect width="180" height="100" rx="8" fill="#1B1F1E" stroke="#FFB400"/>
    <text x="90" y="24" text-anchor="middle" fill="#FFB400" font-size="11" font-weight="700">GitHub Actions</text>
    <text x="90" y="42" text-anchor="middle" fill="#fff" font-size="9">pages.yml workflow</text>
    <text x="90" y="58" text-anchor="middle" fill="#fff" opacity="0.7" font-size="8">校验 10 个 MP4</text>
    <text x="90" y="74" text-anchor="middle" fill="#fff" opacity="0.7" font-size="8">SHA-256 / bytes</text>
    <text x="90" y="90" text-anchor="middle" fill="#FFB400" font-size="8">暂存到 Pages artifact</text>
  </g>

  <line x1="415" y1="70" x2="455" y2="70" stroke="#444" stroke-width="2" marker-end="url(#a)"/>

  <g transform="translate(460,30)">
    <rect width="160" height="80" rx="8" fill="#1B1F1E" stroke="#FFB400"/>
    <text x="80" y="28" text-anchor="middle" fill="#FFB400" font-size="11" font-weight="700">wzxsph/caibao</text>
    <text x="80" y="46" text-anchor="middle" fill="#fff" font-size="9">GitHub Pages</text>
    <text x="80" y="62" text-anchor="middle" fill="#fff" opacity="0.7" font-size="8">wzxsph.github.io/caibao</text>
  </g>

  <line x1="625" y1="70" x2="665" y2="70" stroke="#444" stroke-width="2" marker-end="url(#a)"/>

  <g transform="translate(670,30)">
    <rect width="80" height="80" rx="40" fill="#FFB400" stroke="#1B1F1E"/>
    <text x="40" y="38" text-anchor="middle" fill="#1B1F1E" font-size="11" font-weight="700">用户</text>
    <text x="40" y="52" text-anchor="middle" fill="#1B1F1E" font-size="9">▶ 播放</text>
  </g>

  <text x="380" y="160" text-anchor="middle" fill="#666" font-size="9">同域 video/mp4 + HTTP Range 206</text>
</svg>