<svg xmlns="http://www.w3.org/2000/svg" viewBox="0 0 940 280" font-family="-apple-system, BlinkMacSystemFont, 'Segoe UI', sans-serif">
  <defs>
    <linearGradient id="stage" x1="0" y1="0" x2="0" y2="1">
      <stop offset="0%" stop-color="#1B1F1E"/>
      <stop offset="100%" stop-color="#0b0d12"/>
    </linearGradient>
    <linearGradient id="llm" x1="0" y1="0" x2="0" y2="1">
      <stop offset="0%" stop-color="#FFB400"/>
      <stop offset="100%" stop-color="#FFCB4D"/>
    </linearGradient>
    <linearGradient id="rule" x1="0" y1="0" x2="0" y2="1">
      <stop offset="0%" stop-color="#3b6cd6"/>
      <stop offset="100%" stop-color="#5a85e6"/>
    </linearGradient>
    <marker id="pa" viewBox="0 0 10 10" refX="9" refY="5" markerWidth="7" markerHeight="7" orient="auto-start-reverse">
      <path d="M 0 0 L 10 5 L 0 10 z" fill="#444"/>
    </marker>
    <marker id="paGold" viewBox="0 0 10 10" refX="9" refY="5" markerWidth="7" markerHeight="7" orient="auto-start-reverse">
      <path d="M 0 0 L 10 5 L 0 10 z" fill="#B07700"/>
    </marker>
  </defs>

  <g transform="translate(20,60)">
    <rect width="140" height="100" rx="8" fill="url(#stage)" stroke="#FFB400"/>
    <text x="70" y="22" text-anchor="middle" fill="#FFB400" font-size="9" font-weight="700">1 · media_prepare</text>
    <text x="70" y="42" text-anchor="middle" fill="#fff" font-size="10" font-weight="600">媒体准备</text>
    <text x="70" y="60" text-anchor="middle" fill="#aaa" font-size="8">ffmpeg / ffprobe</text>
    <text x="70" y="76" text-anchor="middle" fill="#aaa" font-size="8">音轨 · 帧 · 派生</text>
    <text x="70" y="92" text-anchor="middle" fill="#FFB400" font-size="8">确定性 / Deterministic</text>
  </g>

  <g transform="translate(180,20)">
    <rect width="120" height="80" rx="8" fill="url(#stage)" stroke="#FFB400"/>
    <text x="60" y="20" text-anchor="middle" fill="#FFB400" font-size="9" font-weight="700">2 · ASR</text>
    <text x="60" y="38" text-anchor="middle" fill="#fff" font-size="10" font-weight="600">语音转写</text>
    <text x="60" y="54" text-anchor="middle" fill="#aaa" font-size="8">火山 Flash ASR</text>
    <text x="60" y="68" text-anchor="middle" fill="#FFB400" font-size="8">→ evidence timeline</text>
  </g>

  <g transform="translate(180,120)">
    <rect width="120" height="80" rx="8" fill="url(#stage)" stroke="#FFB400"/>
    <text x="60" y="20" text-anchor="middle" fill="#FFB400" font-size="9" font-weight="700">3 · OCR</text>
    <text x="60" y="38" text-anchor="middle" fill="#fff" font-size="10" font-weight="600">关键帧文字</text>
    <text x="60" y="54" text-anchor="middle" fill="#aaa" font-size="8">火山 OCR</text>
    <text x="60" y="68" text-anchor="middle" fill="#FFB400" font-size="8">→ evidence timeline</text>
  </g>

  <g transform="translate(320,60)">
    <rect width="140" height="100" rx="8" fill="url(#llm)" stroke="#1B1F1E"/>
    <text x="70" y="22" text-anchor="middle" fill="#1B1F1E" font-size="9" font-weight="700">4 · semantic_graph</text>
    <text x="70" y="42" text-anchor="middle" fill="#1B1F1E" font-size="10" font-weight="700">语义图谱</text>
    <text x="70" y="60" text-anchor="middle" fill="#1B1F1E" opacity="0.85" font-size="8">LLM (MiniMax)</text>
    <text x="70" y="76" text-anchor="middle" fill="#1B1F1E" opacity="0.85" font-size="8">因果边 from/to</text>
    <text x="70" y="92" text-anchor="middle" fill="#1B1F1E" font-size="8">tool_choice: required</text>
  </g>

  <g transform="translate(480,30)">
    <rect width="120" height="70" rx="8" fill="url(#rule)" stroke="#1B1F1E"/>
    <text x="60" y="18" text-anchor="middle" fill="#fff" font-size="9" font-weight="700">5 · cue_scorer</text>
    <text x="60" y="36" text-anchor="middle" fill="#fff" font-size="10" font-weight="600">评分代理</text>
    <text x="60" y="52" text-anchor="middle" fill="#fff" opacity="0.85" font-size="8">subSignal · 规则归并</text>
    <text x="60" y="66" text-anchor="middle" fill="#fff" opacity="0.85" font-size="8">priority 规则表</text>
  </g>

  <g transform="translate(480,120)">
    <rect width="120" height="70" rx="8" fill="url(#rule)" stroke="#1B1F1E"/>
    <text x="60" y="18" text-anchor="middle" fill="#fff" font-size="9" font-weight="700">6 · cue_planner</text>
    <text x="60" y="36" text-anchor="middle" fill="#fff" font-size="10" font-weight="600">排程规划</text>
    <text x="60" y="52" text-anchor="middle" fill="#fff" opacity="0.85" font-size="8">间距 ≥ 45s</text>
    <text x="60" y="66" text-anchor="middle" fill="#fff" opacity="0.85" font-size="8">同时仅 1 个</text>
  </g>

  <g transform="translate(620,60)">
    <rect width="140" height="100" rx="8" fill="url(#rule)" stroke="#1B1F1E"/>
    <text x="70" y="22" text-anchor="middle" fill="#fff" font-size="9" font-weight="700">7 · direction_rules</text>
    <text x="70" y="42" text-anchor="middle" fill="#fff" font-size="10" font-weight="600">方向规则引擎</text>
    <text x="70" y="60" text-anchor="middle" fill="#fff" opacity="0.85" font-size="8">support / pressure</text>
    <text x="70" y="76" text-anchor="middle" fill="#fff" opacity="0.85" font-size="8">conflict / insufficient</text>
    <text x="70" y="92" text-anchor="middle" fill="#FFD700" font-size="8">先于授权</text>
  </g>

  <g transform="translate(780,30)">
    <rect width="140" height="70" rx="8" fill="url(#llm)" stroke="#1B1F1E"/>
    <text x="70" y="18" text-anchor="middle" fill="#1B1F1E" font-size="9" font-weight="700">8 · payload_author</text>
    <text x="70" y="36" text-anchor="middle" fill="#1B1F1E" font-size="10" font-weight="700">文案授权</text>
    <text x="70" y="52" text-anchor="middle" fill="#1B1F1E" opacity="0.85" font-size="8">LLM 消费锁定方向</text>
    <text x="70" y="66" text-anchor="middle" fill="#FFB400" font-size="8">RENDERABLE_KINDS</text>
  </g>

  <g transform="translate(780,120)">
    <rect width="140" height="70" rx="8" fill="url(#stage)" stroke="#FFB400"/>
    <text x="70" y="18" text-anchor="middle" fill="#FFB400" font-size="9" font-weight="700">9 · coverage_report</text>
    <text x="70" y="36" text-anchor="middle" fill="#fff" font-size="10" font-weight="600">覆盖报告</text>
    <text x="70" y="52" text-anchor="middle" fill="#aaa" font-size="8">确定性 / 非 LLM</text>
    <text x="70" y="66" text-anchor="middle" fill="#FFB400" font-size="8">DraftExperience</text>
  </g>

  <line x1="160" y1="110" x2="180" y2="60" stroke="#444" stroke-width="1.5" marker-end="url(#pa)"/>
  <line x1="160" y1="110" x2="180" y2="160" stroke="#444" stroke-width="1.5" marker-end="url(#pa)"/>
  <line x1="300" y1="60" x2="320" y2="110" stroke="#444" stroke-width="1.5" marker-end="url(#pa)"/>
  <line x1="300" y1="160" x2="320" y2="110" stroke="#444" stroke-width="1.5" marker-end="url(#pa)"/>
  <line x1="460" y1="110" x2="480" y2="65" stroke="#444" stroke-width="1.5" marker-end="url(#pa)"/>
  <line x1="460" y1="110" x2="480" y2="155" stroke="#444" stroke-width="1.5" marker-end="url(#pa)"/>
  <line x1="600" y1="65" x2="620" y2="110" stroke="#444" stroke-width="1.5" marker-end="url(#pa)"/>
  <line x1="600" y1="155" x2="620" y2="110" stroke="#444" stroke-width="1.5" marker-end="url(#pa)"/>
  <line x1="760" y1="110" x2="780" y2="65" stroke="#B07700" stroke-width="2" marker-end="url(#paGold)"/>
  <line x1="760" y1="110" x2="780" y2="155" stroke="#444" stroke-width="1.5" marker-end="url(#pa)"/>

  <path d="M 390 50 Q 410 30 430 50" fill="none" stroke="#B07700" stroke-width="1.5" stroke-dasharray="3,2" marker-end="url(#paGold)"/>
  <text x="410" y="22" text-anchor="middle" fill="#B07700" font-size="8" font-weight="700">定向修复 ≤ 2</text>

  <g transform="translate(20,210)">
    <rect width="900" height="56" rx="8" fill="#fafafa" stroke="#ddd"/>
    <text x="20" y="22" fill="#1B1F1E" font-size="11" font-weight="700">管线不变量 · Pipeline Invariants</text>
    <text x="20" y="40" fill="#333" font-size="9">▸ 离线运行 / 终点恒为 draft + BLOCKED:HUMAN_REVIEW_REQUIRED / 模型输出仅候选 / 方向规则先于授权 / 终检正则封禁词</text>
  </g>

  <g transform="translate(20,4)">
    <rect x="0" y="0" width="14" height="14" fill="url(#stage)" stroke="#FFB400"/>
    <text x="20" y="11" fill="#666" font-size="9">媒体层 / Deterministic</text>
    <rect x="160" y="0" width="14" height="14" fill="url(#llm)"/>
    <text x="180" y="11" fill="#666" font-size="9">LLM 阶段 / Guarded</text>
    <rect x="290" y="0" width="14" height="14" fill="url(#rule)"/>
    <text x="310" y="11" fill="#666" font-size="9">规则引擎 / Rule-first</text>
  </g>
</svg>