<svg xmlns="http://www.w3.org/2000/svg" viewBox="0 0 360 720">
  <rect width="360" height="720" rx="28" fill="#fafafa"/>
  <rect x="12" y="12" width="336" height="696" rx="20" fill="#fff" stroke="#FFB400" stroke-width="1.5"/>
  <rect x="0" y="0" width="360" height="80" fill="#f3f3f3"/>
  <text x="180" y="40" text-anchor="middle" fill="#B07700" font-family="sans-serif" font-size="14" font-weight="700">财包 · 推荐流</text>
  <text x="180" y="60" text-anchor="middle" fill="#333" opacity="0.6" font-family="sans-serif" font-size="10">Caibao · Showcase Feed</text>
  <rect x="30" y="100" width="300" height="420" rx="12" fill="#eee" stroke="#ccc"/>
  <polygon points="160,260 160,360 220,310" fill="#FFB400" opacity="0.8"/>
  <rect x="30" y="100" width="300" height="34" fill="#000" opacity="0.25"/>
  <circle cx="50" cy="117" r="12" fill="#FFB400"/>
  <text x="64" y="121" fill="#fff" font-family="sans-serif" font-size="11" font-weight="600">小Lin说</text>
  <text x="280" y="121" text-anchor="end" fill="#fff" opacity="0.85" font-family="sans-serif" font-size="10">▶ 12.4w</text>
  <rect x="140" y="480" width="200" height="44" rx="22" fill="#FFB400" stroke="#1B1F1E" stroke-width="1.5"/>
  <circle cx="170" cy="502" r="8" fill="#1B1F1E"/>
  <text x="180" y="506" fill="#1B1F1E" font-family="sans-serif" font-size="12" font-weight="700">财包·因果推演</text>
  <text x="240" y="506" fill="#1B1F1E" font-family="sans-serif" font-size="10" opacity="0.7">▶</text>
  <rect x="30" y="540" width="40" height="40" rx="20" fill="#FFB400" stroke="#1B1F1E" stroke-width="1"/>
  <text x="50" y="566" text-anchor="middle" fill="#1B1F1E" font-family="sans-serif" font-size="22" font-weight="800">财</text>
  <rect x="30" y="600" width="300" height="80" rx="8" fill="#f3f3f3" stroke="#ccc"/>
  <text x="180" y="640" text-anchor="middle" fill="#333" font-family="sans-serif" font-size="11">财务自由≠有钱</text>
  <text x="180" y="658" text-anchor="middle" fill="#B07700" font-family="sans-serif" font-size="10">--- 悬停POI逻辑 ---</text>
</svg>